<svg xmlns="http://www.w3.org/2000/svg" width="11" height="11" viewBox="0 0 11 11" fill="none">
  <g clip-path="url(#clip0_1_12681)">
    <path d="M5.88635 0.661621L4.47488 2.07309H2.47494V4.07302L1.06348 5.48449L2.47494 6.89596V8.8959H4.47488L5.88635 10.3074L6.31277 9.88094V7.97055L7.69439 9.35217L8.29992 8.75091L6.31277 6.76377V5.91092H7.16563L9.15277 7.89806L9.75403 7.29254L8.37241 5.91092H10.1506V5.05807H8.37241L9.75403 3.67645L9.15277 3.07092L7.16563 5.05807H6.31277V4.20522L8.29992 2.21807L7.69439 1.61681L6.31277 2.99843V1.08805M5.45992 2.96432V3.83423C4.70941 4.03038 4.18065 4.7084 4.18065 5.48449C4.18166 5.86224 4.30772 6.22901 4.53915 6.52756C4.77058 6.82611 5.09436 7.03962 5.45992 7.13476V8.00467C4.86418 7.90397 4.3233 7.59569 3.93306 7.13443C3.54282 6.67317 3.32841 6.08869 3.3278 5.48449C3.3278 4.23507 4.22755 3.169 5.45992 2.96432Z" fill="#24A966"/>
  </g>
  <defs>
    <clipPath id="clip0_1_12681">
      <rect width="10.2342" height="10.2342" fill="white" transform="translate(0.769531 0.367409)"/>
    </clipPath>
  </defs>
</svg>