<svg xmlns="http://www.w3.org/2000/svg" width="11" height="11" viewBox="0 0 11 11" fill="none">
  <g clip-path="url(#clip0_1_12671)">
    <path d="M9.29838 5.28966V2.94432C9.29838 2.54849 9.14114 2.16887 8.86124 1.88898C8.58135 1.60908 8.20173 1.45184 7.80589 1.45184C7.41006 1.45184 7.03044 1.60908 6.75054 1.88898C6.47065 2.16887 6.3134 2.54849 6.3134 2.94432V3.15754M9.29838 5.28966V6.56894C9.29838 7.02132 9.11867 7.45517 8.79879 7.77505C8.47891 8.09494 8.04506 8.27464 7.59268 8.27464H4.18128C3.7289 8.27464 3.29505 8.09494 2.97516 7.77505C2.65528 7.45517 2.47558 7.02132 2.47558 6.56894V5.28966H9.29838ZM9.93802 5.28966H1.83594" stroke="#24A966" stroke-width="1.02342" stroke-linecap="round"/>
    <path d="M4.39484 8.27462L3.54199 9.55389M7.37982 8.27462L8.23267 9.55389" stroke="#24A966" stroke-width="1.02342" stroke-linecap="round" stroke-linejoin="round"/>
  </g>
  <defs>
    <clipPath id="clip0_1_12671">
      <rect width="10.2342" height="10.2342" fill="white" transform="translate(0.769531 0.385757)"/>
    </clipPath>
  </defs>
</svg>