<svg xmlns="http://www.w3.org/2000/svg" width="11" height="12" viewBox="0 0 11 12" fill="none">
  <path d="M2.90135 2.17416H9.29773C9.52392 2.17416 9.74084 2.26402 9.90079 2.42396C10.0607 2.5839 10.1506 2.80082 10.1506 3.02701V4.30629C10.1506 4.53248 10.0607 4.74941 9.90079 4.90935C9.74084 5.06929 9.52392 5.15914 9.29773 5.15914H8.44488V6.43842C8.44488 6.8908 8.26517 7.32465 7.94529 7.64453C7.62541 7.96441 7.19156 8.14412 6.73918 8.14412H4.18062C3.72824 8.14412 3.29439 7.96441 2.97451 7.64453C2.65463 7.32465 2.47492 6.8908 2.47492 6.43842V2.60059C2.47492 2.48749 2.51985 2.37903 2.59982 2.29906C2.67979 2.21909 2.78825 2.17416 2.90135 2.17416ZM8.44488 3.02701V4.30629H9.29773V3.02701H8.44488ZM1.62207 8.99697H9.29773V9.84982H1.62207V8.99697Z" fill="#24A966"/>
</svg>