<svg width="61" height="61" viewBox="0 0 61 61" fill="none" xmlns="http://www.w3.org/2000/svg">
<g id="ep:location-filled">
<path id="Vector" d="M30.5 58C32.098 58 38.3447 53.3994 43.3225 47.6917C49.958 40.0886 54 31.6025 54 23.5385C54 10.7748 43.5959 2 30.5 2C17.4041 2 7 10.7748 7 23.5385C7 31.6369 11.042 40.1231 17.6775 47.7175C22.651 53.4123 28.8977 58 30.5 58ZM30.5 28.7077C31.6332 28.7077 32.72 28.2538 33.5213 27.446C34.3226 26.6382 34.7727 25.5425 34.7727 24.4C34.7727 23.2575 34.3226 22.1619 33.5213 21.354C32.72 20.5462 31.6332 20.0923 30.5 20.0923C29.3668 20.0923 28.28 20.5462 27.4787 21.354C26.6774 22.1619 26.2273 23.2575 26.2273 24.4C26.2273 25.5425 26.6774 26.6382 27.4787 27.446C28.28 28.2538 29.3668 28.7077 30.5 28.7077ZM30.5 38.1846C26.8738 38.1846 23.3961 36.7323 20.8319 34.1472C18.2678 31.5621 16.8273 28.0559 16.8273 24.4C16.8273 20.7441 18.2678 17.2379 20.8319 14.6528C23.3961 12.0677 26.8738 10.6154 30.5 10.6154C34.1262 10.6154 37.6039 12.0677 40.1681 14.6528C42.7322 17.2379 44.1727 20.7441 44.1727 24.4C44.1727 28.0559 42.7322 31.5621 40.1681 34.1472C37.6039 36.7323 34.1262 38.1846 30.5 38.1846Z" fill="#1E91B6"/>
</g>
</svg>
