<svg width="48" height="5" viewBox="0 0 48 5" fill="none" xmlns="http://www.w3.org/2000/svg">
<rect width="48" height="5" fill="#ECE6E6"/>
<g id="Vendor Side">
<g id="Amenities" clip-path="url(#clip0_0_1)">
<rect width="360" height="800" transform="translate(-156 -195)" fill="#F5F9FF"/>
<g id="Frame 410">
<path d="M-156 6.00001C-156 -5.04569 -147.046 -14 -136 -14H184C195.046 -14 204 -5.0457 204 6V605H-156V6.00001Z" fill="white"/>
<path id="rectangle" fill-rule="evenodd" clip-rule="evenodd" d="M0 2.5C0 1.11929 1.11929 0 2.5 0H45.5C46.8807 0 48 1.11929 48 2.5C48 3.88071 46.8807 5 45.5 5H2.5C1.11929 5 0 3.88071 0 2.5Z" fill="#CDCFD0"/>
</g>
</g>
<path d="M-4292 3198C-4282.61 3198 -4275 3205.61 -4275 3215H-4313C-4313 3226.6 -4303.6 3236 -4292 3236V3198ZM-4275 3215V3176.49H-4313V3215H-4275ZM-4275 3099.47V3022.45H-4313V3099.47H-4275ZM-4275 2945.43V2868.41H-4313V2945.43H-4275ZM-4275 2791.39V2714.38H-4313V2791.39H-4275ZM-4275 2637.36V2560.34H-4313V2637.36H-4275ZM-4275 2483.32V2406.3H-4313V2483.32H-4275ZM-4275 2329.28V2252.26H-4313V2329.28H-4275ZM-4275 2175.24V2098.22H-4313V2175.24H-4275ZM-4275 2021.2V1944.18H-4313V2021.2H-4275ZM-4275 1867.16V1790.14H-4313V1867.16H-4275ZM-4275 1713.12V1636.11H-4313V1713.12H-4275ZM-4275 1559.09V1482.07H-4313V1559.09H-4275ZM-4275 1405.05V1328.03H-4313V1405.05H-4275ZM-4275 1251.01V1173.99H-4313V1251.01H-4275ZM-4275 1096.97V1019.95H-4313V1096.97H-4275ZM-4275 942.932V865.913H-4313V942.932H-4275ZM-4275 788.893V711.874H-4313V788.893H-4275ZM-4275 634.855V557.835H-4313V634.855H-4275ZM-4275 480.816V403.797H-4313V480.816H-4275ZM-4275 326.778V249.758H-4313V326.778H-4275ZM-4275 172.739V95.7198H-4313V172.739H-4275ZM-4275 18.7005V-58.3188H-4313V18.7005H-4275ZM-4275 -135.338V-212.357H-4313V-135.338H-4275ZM-4275 -289.377V-366.396H-4313V-289.377H-4275ZM-4275 -443.415V-520.434H-4313V-443.415H-4275ZM-4275 -597.454V-674.473H-4313V-597.454H-4275ZM-4275 -751.492V-790H-4313V-751.492H-4275ZM-4275 -790C-4275 -780.612 -4282.61 -773 -4292 -773V-811C-4303.6 -811 -4313 -801.597 -4313 -790H-4275ZM-4292 -773H-4254.17V-811H-4292V-773ZM-4178.5 -773H-4102.84V-811H-4178.5V-773ZM-4027.18 -773H-3951.51V-811H-4027.18V-773ZM-3875.85 -773H-3800.19V-811H-3875.85V-773ZM-3724.52 -773H-3648.86V-811H-3724.52V-773ZM-3573.2 -773H-3497.53V-811H-3573.2V-773ZM-3421.87 -773H-3346.21V-811H-3421.87V-773ZM-3270.54 -773H-3194.88V-811H-3270.54V-773ZM-3119.22 -773H-3043.55V-811H-3119.22V-773ZM-2967.89 -773H-2892.23V-811H-2967.89V-773ZM-2816.56 -773H-2740.9V-811H-2816.56V-773ZM-2665.24 -773H-2589.57V-811H-2665.24V-773ZM-2513.91 -773H-2438.25V-811H-2513.91V-773ZM-2362.58 -773H-2286.92V-811H-2362.58V-773ZM-2211.25 -773H-2135.59V-811H-2211.25V-773ZM-2059.93 -773H-1984.26V-811H-2059.93V-773ZM-1908.6 -773H-1832.94V-811H-1908.6V-773ZM-1757.27 -773H-1681.61V-811H-1757.27V-773ZM-1605.95 -773H-1530.28V-811H-1605.95V-773ZM-1454.62 -773H-1378.96V-811H-1454.62V-773ZM-1303.29 -773H-1227.63V-811H-1303.29V-773ZM-1151.96 -773H-1076.3V-811H-1151.96V-773ZM-1000.64 -773H-924.974V-811H-1000.64V-773ZM-849.311 -773H-773.647V-811H-849.311V-773ZM-697.983 -773H-622.32V-811H-697.983V-773ZM-546.656 -773H-470.993V-811H-546.656V-773ZM-395.329 -773H-319.665V-811H-395.329V-773ZM-244.002 -773H-168.338V-811H-244.002V-773ZM-92.6748 -773H-17.0112V-811H-92.6748V-773ZM58.6523 -773H134.316V-811H58.6523V-773ZM209.979 -773H285.643V-811H209.979V-773ZM361.307 -773H436.97V-811H361.307V-773ZM512.634 -773H588.297V-811H512.634V-773ZM663.961 -773H739.625V-811H663.961V-773ZM815.288 -773H890.952V-811H815.288V-773ZM966.615 -773H1042.28V-811H966.615V-773ZM1117.94 -773H1193.61V-811H1117.94V-773ZM1269.27 -773H1344.93V-811H1269.27V-773ZM1420.6 -773H1496.26V-811H1420.6V-773ZM1571.92 -773H1647.59V-811H1571.92V-773ZM1723.25 -773H1798.91V-811H1723.25V-773ZM1874.58 -773H1950.24V-811H1874.58V-773ZM2025.91 -773H2101.57V-811H2025.91V-773ZM2177.23 -773H2252.9V-811H2177.23V-773ZM2328.56 -773H2404.22V-811H2328.56V-773ZM2479.89 -773H2555.55V-811H2479.89V-773ZM2631.21 -773H2706.88V-811H2631.21V-773ZM2782.54 -773H2858.2V-811H2782.54V-773ZM2933.87 -773H3009.53V-811H2933.87V-773ZM3085.2 -773H3160.86V-811H3085.2V-773ZM3236.52 -773H3312.19V-811H3236.52V-773ZM3387.85 -773H3463.51V-811H3387.85V-773ZM3539.18 -773H3577V-811H3539.18V-773ZM3577 -773C3567.61 -773 3560 -780.611 3560 -790H3598C3598 -801.598 3588.6 -811 3577 -811V-773ZM3560 -790V-751.49H3598V-790H3560ZM3560 -674.471V-597.452H3598V-674.471H3560ZM3560 -520.433V-443.413H3598V-520.433H3560ZM3560 -366.394V-289.375H3598V-366.394H3560ZM3560 -212.356V-135.337H3598V-212.356H3560ZM3560 -58.3173V18.7019H3598V-58.3173H3560ZM3560 95.7211V172.74H3598V95.7211H3560ZM3560 249.76V326.779H3598V249.76H3560ZM3560 403.798V480.818H3598V403.798H3560ZM3560 557.837V634.856H3598V557.837H3560ZM3560 711.875V788.895H3598V711.875H3560ZM3560 865.914V942.933H3598V865.914H3560ZM3560 1019.95V1096.97H3598V1019.95H3560ZM3560 1173.99V1251.01H3598V1173.99H3560ZM3560 1328.03V1405.05H3598V1328.03H3560ZM3560 1482.07V1559.09H3598V1482.07H3560ZM3560 1636.11V1713.13H3598V1636.11H3560ZM3560 1790.15V1867.16H3598V1790.15H3560ZM3560 1944.18V2021.2H3598V1944.18H3560ZM3560 2098.22V2175.24H3598V2098.22H3560ZM3560 2252.26V2329.28H3598V2252.26H3560ZM3560 2406.3V2483.32H3598V2406.3H3560ZM3560 2560.34V2637.36H3598V2560.34H3560ZM3560 2714.38V2791.4H3598V2714.38H3560ZM3560 2868.42V2945.43H3598V2868.42H3560ZM3560 3022.45V3099.47H3598V3022.45H3560ZM3560 3176.49V3215H3598V3176.49H3560ZM3560 3215C3560 3205.61 3567.61 3198 3577 3198V3236C3588.6 3236 3598 3226.6 3598 3215H3560ZM3577 3198H3539.17V3236H3577V3198ZM3463.5 3198H3387.84V3236H3463.5V3198ZM3312.18 3198H3236.51V3236H3312.18V3198ZM3160.85 3198H3085.19V3236H3160.85V3198ZM3009.52 3198H2933.86V3236H3009.52V3198ZM2858.2 3198H2782.53V3236H2858.2V3198ZM2706.87 3198H2631.21V3236H2706.87V3198ZM2555.54 3198H2479.88V3236H2555.54V3198ZM2404.22 3198H2328.55V3236H2404.22V3198ZM2252.89 3198H2177.23V3236H2252.89V3198ZM2101.56 3198H2025.9V3236H2101.56V3198ZM1950.24 3198H1874.57V3236H1950.24V3198ZM1798.91 3198H1723.25V3236H1798.91V3198ZM1647.58 3198H1571.92V3236H1647.58V3198ZM1496.25 3198H1420.59V3236H1496.25V3198ZM1344.93 3198H1269.26V3236H1344.93V3198ZM1193.6 3198H1117.94V3236H1193.6V3198ZM1042.27 3198H966.61V3236H1042.27V3198ZM890.946 3198H815.283V3236H890.946V3198ZM739.619 3198H663.956V3236H739.619V3198ZM588.292 3198H512.628V3236H588.292V3198ZM436.965 3198H361.301V3236H436.965V3198ZM285.638 3198H209.974V3236H285.638V3198ZM134.311 3198H58.647V3236H134.311V3198ZM-17.0166 3198H-92.6802V3236H-17.0166V3198ZM-168.344 3198H-244.007V3236H-168.344V3198ZM-319.671 3198H-395.335V3236H-319.671V3198ZM-470.998 3198H-546.662V3236H-470.998V3198ZM-622.325 3198H-697.989V3236H-622.325V3198ZM-773.653 3198H-849.316V3236H-773.653V3198ZM-924.979 3198H-1000.64V3236H-924.979V3198ZM-1076.31 3198H-1151.97V3236H-1076.31V3198ZM-1227.63 3198H-1303.3V3236H-1227.63V3198ZM-1378.96 3198H-1454.62V3236H-1378.96V3198ZM-1530.29 3198H-1605.95V3236H-1530.29V3198ZM-1681.62 3198H-1757.28V3236H-1681.62V3198ZM-1832.94 3198H-1908.61V3236H-1832.94V3198ZM-1984.27 3198H-2059.93V3236H-1984.27V3198ZM-2135.6 3198H-2211.26V3236H-2135.6V3198ZM-2286.92 3198H-2362.59V3236H-2286.92V3198ZM-2438.25 3198H-2513.91V3236H-2438.25V3198ZM-2589.58 3198H-2665.24V3236H-2589.58V3198ZM-2740.91 3198H-2816.57V3236H-2740.91V3198ZM-2892.23 3198H-2967.9V3236H-2892.23V3198ZM-3043.56 3198H-3119.22V3236H-3043.56V3198ZM-3194.89 3198H-3270.55V3236H-3194.89V3198ZM-3346.21 3198H-3421.88V3236H-3346.21V3198ZM-3497.54 3198H-3573.2V3236H-3497.54V3198ZM-3648.87 3198H-3724.53V3236H-3648.87V3198ZM-3800.2 3198H-3875.86V3236H-3800.2V3198ZM-3951.52 3198H-4027.19V3236H-3951.52V3198ZM-4102.85 3198H-4178.51V3236H-4102.85V3198ZM-4254.18 3198H-4292V3236H-4254.18V3198ZM-4292 3179C-4272.12 3179 -4256 3195.12 -4256 3215H-4332C-4332 3237.09 -4314.09 3255 -4292 3255V3179ZM-4256 3215V3176.49H-4332V3215H-4256ZM-4256 3099.47V3022.45H-4332V3099.47H-4256ZM-4256 2945.43V2868.41H-4332V2945.43H-4256ZM-4256 2791.39V2714.38H-4332V2791.39H-4256ZM-4256 2637.36V2560.34H-4332V2637.36H-4256ZM-4256 2483.32V2406.3H-4332V2483.32H-4256ZM-4256 2329.28V2252.26H-4332V2329.28H-4256ZM-4256 2175.24V2098.22H-4332V2175.24H-4256ZM-4256 2021.2V1944.18H-4332V2021.2H-4256ZM-4256 1867.16V1790.14H-4332V1867.16H-4256ZM-4256 1713.12V1636.11H-4332V1713.12H-4256ZM-4256 1559.09V1482.07H-4332V1559.09H-4256ZM-4256 1405.05V1328.03H-4332V1405.05H-4256ZM-4256 1251.01V1173.99H-4332V1251.01H-4256ZM-4256 1096.97V1019.95H-4332V1096.97H-4256ZM-4256 942.932V865.913H-4332V942.932H-4256ZM-4256 788.893V711.874H-4332V788.893H-4256ZM-4256 634.855V557.835H-4332V634.855H-4256ZM-4256 480.816V403.797H-4332V480.816H-4256ZM-4256 326.778V249.758H-4332V326.778H-4256ZM-4256 172.739V95.7198H-4332V172.739H-4256ZM-4256 18.7005V-58.3188H-4332V18.7005H-4256ZM-4256 -135.338V-212.357H-4332V-135.338H-4256ZM-4256 -289.377V-366.396H-4332V-289.377H-4256ZM-4256 -443.415V-520.434H-4332V-443.415H-4256ZM-4256 -597.454V-674.473H-4332V-597.454H-4256ZM-4256 -751.492V-790H-4332V-751.492H-4256ZM-4256 -790C-4256 -770.119 -4272.12 -754 -4292 -754V-830C-4314.09 -830 -4332 -812.09 -4332 -790H-4256ZM-4292 -754H-4254.17V-830H-4292V-754ZM-4178.5 -754H-4102.84V-830H-4178.5V-754ZM-4027.18 -754H-3951.51V-830H-4027.18V-754ZM-3875.85 -754H-3800.19V-830H-3875.85V-754ZM-3724.52 -754H-3648.86V-830H-3724.52V-754ZM-3573.2 -754H-3497.53V-830H-3573.2V-754ZM-3421.87 -754H-3346.21V-830H-3421.87V-754ZM-3270.54 -754H-3194.88V-830H-3270.54V-754ZM-3119.22 -754H-3043.55V-830H-3119.22V-754ZM-2967.89 -754H-2892.23V-830H-2967.89V-754ZM-2816.56 -754H-2740.9V-830H-2816.56V-754ZM-2665.24 -754H-2589.57V-830H-2665.24V-754ZM-2513.91 -754H-2438.25V-830H-2513.91V-754ZM-2362.58 -754H-2286.92V-830H-2362.58V-754ZM-2211.25 -754H-2135.59V-830H-2211.25V-754ZM-2059.93 -754H-1984.26V-830H-2059.93V-754ZM-1908.6 -754H-1832.94V-830H-1908.6V-754ZM-1757.27 -754H-1681.61V-830H-1757.27V-754ZM-1605.95 -754H-1530.28V-830H-1605.95V-754ZM-1454.62 -754H-1378.96V-830H-1454.62V-754ZM-1303.29 -754H-1227.63V-830H-1303.29V-754ZM-1151.96 -754H-1076.3V-830H-1151.96V-754ZM-1000.64 -754H-924.974V-830H-1000.64V-754ZM-849.311 -754H-773.647V-830H-849.311V-754ZM-697.983 -754H-622.32V-830H-697.983V-754ZM-546.656 -754H-470.993V-830H-546.656V-754ZM-395.329 -754H-319.665V-830H-395.329V-754ZM-244.002 -754H-168.338V-830H-244.002V-754ZM-92.6748 -754H-17.0112V-830H-92.6748V-754ZM58.6523 -754H134.316V-830H58.6523V-754ZM209.979 -754H285.643V-830H209.979V-754ZM361.307 -754H436.97V-830H361.307V-754ZM512.634 -754H588.297V-830H512.634V-754ZM663.961 -754H739.625V-830H663.961V-754ZM815.288 -754H890.952V-830H815.288V-754ZM966.615 -754H1042.28V-830H966.615V-754ZM1117.94 -754H1193.61V-830H1117.94V-754ZM1269.27 -754H1344.93V-830H1269.27V-754ZM1420.6 -754H1496.26V-830H1420.6V-754ZM1571.92 -754H1647.59V-830H1571.92V-754ZM1723.25 -754H1798.91V-830H1723.25V-754ZM1874.58 -754H1950.24V-830H1874.58V-754ZM2025.91 -754H2101.57V-830H2025.91V-754ZM2177.23 -754H2252.9V-830H2177.23V-754ZM2328.56 -754H2404.22V-830H2328.56V-754ZM2479.89 -754H2555.55V-830H2479.89V-754ZM2631.21 -754H2706.88V-830H2631.21V-754ZM2782.54 -754H2858.2V-830H2782.54V-754ZM2933.87 -754H3009.53V-830H2933.87V-754ZM3085.2 -754H3160.86V-830H3085.2V-754ZM3236.52 -754H3312.19V-830H3236.52V-754ZM3387.85 -754H3463.51V-830H3387.85V-754ZM3539.18 -754H3577V-830H3539.18V-754ZM3577 -754C3557.12 -754 3541 -770.117 3541 -790H3617C3617 -812.092 3599.09 -830 3577 -830V-754ZM3541 -790V-751.49H3617V-790H3541ZM3541 -674.471V-597.452H3617V-674.471H3541ZM3541 -520.433V-443.413H3617V-520.433H3541ZM3541 -366.394V-289.375H3617V-366.394H3541ZM3541 -212.356V-135.337H3617V-212.356H3541ZM3541 -58.3173V18.7019H3617V-58.3173H3541ZM3541 95.7211V172.74H3617V95.7211H3541ZM3541 249.76V326.779H3617V249.76H3541ZM3541 403.798V480.818H3617V403.798H3541ZM3541 557.837V634.856H3617V557.837H3541ZM3541 711.875V788.895H3617V711.875H3541ZM3541 865.914V942.933H3617V865.914H3541ZM3541 1019.95V1096.97H3617V1019.95H3541ZM3541 1173.99V1251.01H3617V1173.99H3541ZM3541 1328.03V1405.05H3617V1328.03H3541ZM3541 1482.07V1559.09H3617V1482.07H3541ZM3541 1636.11V1713.13H3617V1636.11H3541ZM3541 1790.15V1867.16H3617V1790.15H3541ZM3541 1944.18V2021.2H3617V1944.18H3541ZM3541 2098.22V2175.24H3617V2098.22H3541ZM3541 2252.26V2329.28H3617V2252.26H3541ZM3541 2406.3V2483.32H3617V2406.3H3541ZM3541 2560.34V2637.36H3617V2560.34H3541ZM3541 2714.38V2791.4H3617V2714.38H3541ZM3541 2868.42V2945.43H3617V2868.42H3541ZM3541 3022.45V3099.47H3617V3022.45H3541ZM3541 3176.49V3215H3617V3176.49H3541ZM3541 3215C3541 3195.12 3557.12 3179 3577 3179V3255C3599.09 3255 3617 3237.09 3617 3215H3541ZM3577 3179H3539.17V3255H3577V3179ZM3463.5 3179H3387.84V3255H3463.5V3179ZM3312.18 3179H3236.51V3255H3312.18V3179ZM3160.85 3179H3085.19V3255H3160.85V3179ZM3009.52 3179H2933.86V3255H3009.52V3179ZM2858.2 3179H2782.53V3255H2858.2V3179ZM2706.87 3179H2631.21V3255H2706.87V3179ZM2555.54 3179H2479.88V3255H2555.54V3179ZM2404.22 3179H2328.55V3255H2404.22V3179ZM2252.89 3179H2177.23V3255H2252.89V3179ZM2101.56 3179H2025.9V3255H2101.56V3179ZM1950.24 3179H1874.57V3255H1950.24V3179ZM1798.91 3179H1723.25V3255H1798.91V3179ZM1647.58 3179H1571.92V3255H1647.58V3179ZM1496.25 3179H1420.59V3255H1496.25V3179ZM1344.93 3179H1269.26V3255H1344.93V3179ZM1193.6 3179H1117.94V3255H1193.6V3179ZM1042.27 3179H966.61V3255H1042.27V3179ZM890.946 3179H815.283V3255H890.946V3179ZM739.619 3179H663.956V3255H739.619V3179ZM588.292 3179H512.628V3255H588.292V3179ZM436.965 3179H361.301V3255H436.965V3179ZM285.638 3179H209.974V3255H285.638V3179ZM134.311 3179H58.647V3255H134.311V3179ZM-17.0166 3179H-92.6802V3255H-17.0166V3179ZM-168.344 3179H-244.007V3255H-168.344V3179ZM-319.671 3179H-395.335V3255H-319.671V3179ZM-470.998 3179H-546.662V3255H-470.998V3179ZM-622.325 3179H-697.989V3255H-622.325V3179ZM-773.653 3179H-849.316V3255H-773.653V3179ZM-924.979 3179H-1000.64V3255H-924.979V3179ZM-1076.31 3179H-1151.97V3255H-1076.31V3179ZM-1227.63 3179H-1303.3V3255H-1227.63V3179ZM-1378.96 3179H-1454.62V3255H-1378.96V3179ZM-1530.29 3179H-1605.95V3255H-1530.29V3179ZM-1681.62 3179H-1757.28V3255H-1681.62V3179ZM-1832.94 3179H-1908.61V3255H-1832.94V3179ZM-1984.27 3179H-2059.93V3255H-1984.27V3179ZM-2135.6 3179H-2211.26V3255H-2135.6V3179ZM-2286.92 3179H-2362.59V3255H-2286.92V3179ZM-2438.25 3179H-2513.91V3255H-2438.25V3179ZM-2589.58 3179H-2665.24V3255H-2589.58V3179ZM-2740.91 3179H-2816.57V3255H-2740.91V3179ZM-2892.23 3179H-2967.9V3255H-2892.23V3179ZM-3043.56 3179H-3119.22V3255H-3043.56V3179ZM-3194.89 3179H-3270.55V3255H-3194.89V3179ZM-3346.21 3179H-3421.88V3255H-3346.21V3179ZM-3497.54 3179H-3573.2V3255H-3497.54V3179ZM-3648.87 3179H-3724.53V3255H-3648.87V3179ZM-3800.2 3179H-3875.86V3255H-3800.2V3179ZM-3951.52 3179H-4027.19V3255H-3951.52V3179ZM-4102.85 3179H-4178.51V3255H-4102.85V3179ZM-4254.18 3179H-4292V3255H-4254.18V3179Z" fill="black" fill-opacity="0.36"/>
</g>
<defs>
<clipPath id="clip0_0_1">
<rect width="360" height="800" fill="white" transform="translate(-156 -195)"/>
</clipPath>
</defs>
</svg>
