<svg xmlns="http://www.w3.org/2000/svg" width="11" height="12" viewBox="0 0 11 12" fill="none">
  <g clip-path="url(#clip0_1_12677)">
    <path d="M3.47733 7.4222L2.58184 6.50539C3.00116 6.08607 3.49339 5.75389 4.05855 5.50883C4.62342 5.2635 5.23278 5.14083 5.88664 5.14083C6.54049 5.14083 7.14999 5.2652 7.71515 5.51395C8.28002 5.7627 8.77212 6.10029 9.19143 6.52671L8.29594 7.4222C7.98323 7.10949 7.62077 6.8643 7.20856 6.68662C6.79634 6.50894 6.3557 6.4201 5.88664 6.4201C5.41757 6.4201 4.97693 6.50894 4.56472 6.68662C4.15251 6.8643 3.79004 7.10949 3.47733 7.4222ZM1.66502 5.6099L0.769531 4.7144C1.42338 4.04634 2.1874 3.52396 3.06157 3.14729C3.93574 2.77061 4.87743 2.58228 5.88664 2.58228C6.89584 2.58228 7.83753 2.77061 8.71171 3.14729C9.58588 3.52396 10.3499 4.04634 11.0037 4.7144L10.1082 5.6099C9.561 5.06265 8.92677 4.63438 8.20554 4.32508C7.48403 4.01606 6.71106 3.86155 5.88664 3.86155C5.06221 3.86155 4.28925 4.01606 3.56773 4.32508C2.84651 4.63438 2.21227 5.06265 1.66502 5.6099ZM5.88664 9.83151L7.38979 8.3177C7.1979 8.12581 6.97402 7.97471 6.71817 7.86441C6.46231 7.75439 6.18513 7.69938 5.88664 7.69938C5.58814 7.69938 5.31096 7.75439 5.05511 7.86441C4.79925 7.97471 4.57538 8.12581 4.38349 8.3177L5.88664 9.83151Z" fill="#24A966"/>
  </g>
  <defs>
    <clipPath id="clip0_1_12677">
      <rect width="10.2342" height="10.2342" fill="white" transform="translate(0.769531 0.876583)"/>
    </clipPath>
  </defs>
</svg>